<?xml version="1.0" encoding="UTF-8"?>
<svg width="214px" height="41px" viewBox="0 0 214 41" version="1.1" xmlns="http://www.w3.org/2000/svg" xmlns:xlink="http://www.w3.org/1999/xlink">
    <!-- Generator: sketchtool 58 (101010) - https://sketch.com -->
    <title>F907EFDB-292E-4DB8-8462-DDD302266003</title>
    <desc>Created with sketchtool.</desc>
    <defs>
        <path d="M44.4115779,20.3969298 C45.434807,20.3969298 46.2442422,20.1922535 46.8399078,19.7828947 C47.4355733,19.373536 47.7334016,18.6352393 47.7334016,17.5679825 C47.7334016,16.4203159 47.3168074,15.63816 46.4836066,15.2214912 C46.037771,15.0021919 45.4421144,14.8925439 44.6966189,14.8925439 L37.1868852,14.8925439 L37.1868852,20.3969298 L44.4115779,20.3969298 Z M37.1868852,13.0175439 L44.6418033,13.0175439 C45.8696783,13.0175439 46.8819291,13.1966356 47.6785861,13.5548246 C49.1915035,14.2419625 49.9479508,15.5102247 49.9479508,17.3596491 C49.9479508,18.3245662 49.7487896,19.114032 49.3504611,19.7280702 C48.9521326,20.3421083 48.3948465,20.8355245 47.6785861,21.2083333 C48.3071411,21.4641826 48.7803775,21.8004365 49.0983094,22.2171053 C49.4162413,22.633774 49.5934766,23.3099368 49.6300205,24.245614 L49.7067623,26.4057018 C49.7286886,27.0197399 49.7798493,27.4766067 49.8602459,27.7763158 C49.9918039,28.2880143 50.2256814,28.6169583 50.5618852,28.7631579 L50.5618852,29.125 L47.8868852,29.125 C47.8137974,28.9861104 47.7553281,28.8070186 47.7114754,28.5877193 C47.6676227,28.36842 47.6310794,27.9444476 47.6018443,27.3157895 L47.4702869,24.629386 C47.4191254,23.5767491 47.0281116,22.8713468 46.2972336,22.5131579 C45.8806332,22.3157885 45.2265072,22.2171053 44.3348361,22.2171053 L39.3685451,22.2171053 L39.3685451,29.125 L37.1868852,29.125 L37.1868852,13.0175439 Z M61.3276639,13.0175439 L63.7943648,13.0175439 L69.6377049,29.125 L67.2477459,29.125 L62.429457,15.4078947 L57.5015369,29.125 L55.2650615,29.125 L61.3276639,13.0175439 Z M73.9352459,27.3157895 L83.8130123,14.9364035 L74.6588115,14.9364035 L74.6588115,13.0175439 L86.6195697,13.0175439 L86.6195697,14.8925439 L76.6869877,27.2061404 L86.6195697,27.2061404 L86.6195697,29.125 L73.9352459,29.125 L73.9352459,27.3157895 Z M99.3038934,12.5789474 C102.147009,12.5789474 104.251906,13.4926809 105.618648,15.3201754 C106.685729,16.7456212 107.219262,18.5694333 107.219262,20.7916667 C107.219262,23.1966495 106.608988,25.1958985 105.388422,26.7894737 C103.955901,28.6608281 101.913128,29.5964912 99.260041,29.5964912 C96.7823647,29.5964912 94.8346041,28.777786 93.4167008,27.1403509 C92.1522819,25.5613956 91.520082,23.5658015 91.520082,21.1535088 C91.520082,18.9751353 92.0609236,17.1111189 93.142623,15.5614035 C94.5312911,13.5730895 96.5850274,12.5789474 99.3038934,12.5789474 Z M99.5231557,27.6447368 C101.445365,27.6447368 102.835839,26.9557817 103.694621,25.5778509 C104.553403,24.19992 104.982787,22.615506 104.982787,20.8245614 C104.982787,18.9312771 104.487624,17.4071695 103.497285,16.252193 C102.506945,15.0972164 101.153014,14.5197368 99.4354508,14.5197368 C97.769049,14.5197368 96.4096364,15.091734 95.3571721,16.2357456 C94.3047079,17.3797572 93.7784836,19.0665093 93.7784836,21.2960526 C93.7784836,23.0796873 94.229794,24.5836927 95.1324283,25.808114 C96.0350626,27.0325354 97.4986238,27.6447368 99.5231557,27.6447368 Z M120.813525,20.3969298 C121.836754,20.3969298 122.646189,20.1922535 123.241855,19.7828947 C123.83752,19.373536 124.135348,18.6352393 124.135348,17.5679825 C124.135348,16.4203159 123.718754,15.63816 122.885553,15.2214912 C122.439718,15.0021919 121.844061,14.8925439 121.098566,14.8925439 L113.588832,14.8925439 L113.588832,20.3969298 L120.813525,20.3969298 Z M113.588832,13.0175439 L121.04375,13.0175439 C122.271625,13.0175439 123.283876,13.1966356 124.080533,13.5548246 C125.59345,14.2419625 126.349898,15.5102247 126.349898,17.3596491 C126.349898,18.3245662 126.150736,19.114032 125.752408,19.7280702 C125.354079,20.3421083 124.796793,20.8355245 124.080533,21.2083333 C124.709088,21.4641826 125.182324,21.8004365 125.500256,22.2171053 C125.818188,22.633774 125.995423,23.3099368 126.031967,24.245614 L126.108709,26.4057018 C126.130635,27.0197399 126.181796,27.4766067 126.262193,27.7763158 C126.393751,28.2880143 126.627628,28.6169583 126.963832,28.7631579 L126.963832,29.125 L124.288832,29.125 C124.215744,28.9861104 124.157275,28.8070186 124.113422,28.5877193 C124.069569,28.36842 124.033026,27.9444476 124.003791,27.3157895 L123.872234,24.629386 C123.821072,23.5767491 123.430058,22.8713468 122.69918,22.5131579 C122.28258,22.3157885 121.628454,22.2171053 120.736783,22.2171053 L115.770492,22.2171053 L115.770492,29.125 L113.588832,29.125 L113.588832,20.3969298 L113.588832,14.8925439 L113.588832,13.0175439 Z M144.789857,12.9627193 L144.789857,15.8245614 L139.955123,15.8245614 L139.955123,29.125 L136.556557,29.125 L136.556557,15.8245614 L131.699898,15.8245614 L131.699898,12.9627193 L144.789857,12.9627193 Z M150.249488,29.125 L150.249488,12.9627193 L153.593238,12.9627193 L153.593238,19.125 L159.907992,19.125 L159.907992,12.9627193 L163.262705,12.9627193 L163.262705,29.125 L159.907992,29.125 L159.907992,21.9100877 L153.593238,21.9100877 L153.593238,29.125 L150.249488,29.125 Z M173.085656,29.125 L169.730943,29.125 L169.730943,12.9627193 L173.085656,12.9627193 L173.085656,29.125 Z M179.685451,12.9627193 L183.226537,12.9627193 L189.661885,24.245614 L189.661885,12.9627193 L192.808299,12.9627193 L192.808299,29.125 L189.43166,29.125 L182.831865,17.6447368 L182.831865,29.125 L179.685451,29.125 L179.685451,12.9627193 Z M199.517725,12.9627193 L202.839549,12.9627193 L202.839549,19.6184211 L209.077561,12.9627193 L213.440881,12.9627193 L206.81916,19.6184211 L213.780738,29.125 L209.439344,29.125 L204.451127,22.0635965 L202.839549,23.7192982 L202.839549,29.125 L199.517725,29.125 L199.517725,12.9627193 Z" id="path-1"></path>
    </defs>
    <g id="Page-1" stroke="none" stroke-width="1" fill="none" fill-rule="evenodd">
        <g id="company" transform="translate(-164.000000, -19.000000)" fill-rule="nonzero">
            <g id="rzt-new-logo" transform="translate(164.000000, 19.000000)">
                <g id="RAZORTHINK">
                    <use fill="#FFFFFF" xlink:href="#path-1"></use>
                    <use fill="#232323" xlink:href="#path-1"></use>
                </g>
                <g id="logo" fill="#D12F30">
                    <polygon id="Shape" points="34.3803279 0.298245614 24.4451148 8.3214727 7.01639344 8.3214727 7.01639344 30.122807"></polygon>
                    <polygon id="Shape" points="0 41 9.89311475 33.0075223 27.3218361 33.0075223 27.3639344 11.1754386"></polygon>
                </g>
            </g>
        </g>
    </g>
</svg>